HIERARCHY
ROOT Hips
{
	OFFSET -3.958830 18.904000 13.208200
	CHANNELS 6 Xposition Yposition Zposition Zrotation Yrotation Xrotation 
	JOINT LHipJoint
	{
		OFFSET 0.000000 0.000000 0.000000
		CHANNELS 3 Zrotation Yrotation Xrotation
		JOINT LeftUpLeg
		{
			OFFSET 1.800000 -1.400000 0.085000
			CHANNELS 3 Zrotation Yrotation Xrotation
			JOINT LeftLeg
			{
				OFFSET 2.215000 -6.000000 0.000000
				CHANNELS 3 Zrotation Yrotation Xrotation
				JOINT LeftFoot
				{
					OFFSET 2.500000 -6.900000 0.000000
					CHANNELS 3 Zrotation Yrotation Xrotation
					JOINT LeftToeBase
					{
						OFFSET 0.200000 -0.500000 1.950000
						CHANNELS 3 Zrotation Yrotation Xrotation
						End Site
						{
							OFFSET 0.000000 0.000000 0.000000
						}
					}
				}
			}
		}
	}
	JOINT RHipJoint
	{
		OFFSET 0.000000 0.000000 0.000000
		CHANNELS 3 Zrotation Yrotation Xrotation
		JOINT RightUpLeg
		{
			OFFSET -1.800000 -1.400000 0.085000
			CHANNELS 3 Zrotation Yrotation Xrotation
			JOINT RightLeg
			{
				OFFSET -2.215000 -6.000000 0.000000
				CHANNELS 3 Zrotation Yrotation Xrotation
				JOINT RightFoot
				{
					OFFSET -2.500000 -6.900000 0.000000
					CHANNELS 3 Zrotation Yrotation Xrotation
					JOINT RightToeBase
					{
						OFFSET -0.200000 -0.500000 1.950000
						CHANNELS 3 Zrotation Yrotation Xrotation
						End Site
						{
							OFFSET 0.000000 0.000000 0.000000
						}
					}
				}
			}
		}
	}
	JOINT LowerBack
	{
		OFFSET 0.000000 0.000000 0.000000
		CHANNELS 3 Zrotation Yrotation Xrotation
		JOINT Spine
		{
			OFFSET -0.087000 1.940000 -0.288900
			CHANNELS 3 Zrotation Yrotation Xrotation
			JOINT Spine1
			{
				OFFSET 0.000000 1.950000 0.060000
				CHANNELS 3 Zrotation Yrotation Xrotation
				JOINT Neck
				{
					OFFSET 0.000000 0.000000 0.000000
					CHANNELS 3 Zrotation Yrotation Xrotation
					JOINT Neck1
					{
						OFFSET 0.000000 1.600000 0.340000
						CHANNELS 3 Zrotation Yrotation Xrotation
						JOINT Head
						{
							OFFSET 0.000000 1.667000 -0.240000
							CHANNELS 3 Zrotation Yrotation Xrotation
							End Site
							{
								OFFSET 0.000000 0.000000 0.000000
							}
						}
					}
				}
				JOINT LeftShoulder
				{
					OFFSET 0.000000 0.000000 0.000000
					CHANNELS 3 Zrotation Yrotation Xrotation
					JOINT LeftArm
					{
						OFFSET 2.700000 1.550000 -0.730000
						CHANNELS 3 Zrotation Yrotation Xrotation
						JOINT LeftForeArm
						{
							OFFSET 5.450000 0.000000 0.000000
							CHANNELS 3 Zrotation Yrotation Xrotation
							JOINT LeftHand
							{
								OFFSET 3.450000 0.000000 0.000000
								CHANNELS 3 Zrotation Yrotation Xrotation
								JOINT LeftHandIndex1
								{
									OFFSET 0.750000 0.000000 0.000000
									CHANNELS 3 Zrotation Yrotation Xrotation
									End Site
									{
										OFFSET 0.000000 0.000000 0.000000
									}
								}
							}
						}
					}
				}
				JOINT RightShoulder
				{
					OFFSET 0.000000 0.000000 0.000000
					CHANNELS 3 Zrotation Yrotation Xrotation
					JOINT RightArm
					{
						OFFSET -2.700000 1.550000 -0.730000
						CHANNELS 3 Zrotation Yrotation Xrotation
						JOINT RightForeArm
						{
							OFFSET -5.450000 0.000000 0.000000
							CHANNELS 3 Zrotation Yrotation Xrotation
							JOINT RightHand
							{
								OFFSET -3.450000 0.000000 0.000000
								CHANNELS 3 Zrotation Yrotation Xrotation
								JOINT RightHandIndex1
								{
									OFFSET -0.750000 0.000000 0.000000
									CHANNELS 3 Zrotation Yrotation Xrotation
									End Site
									{
										OFFSET 0.000000 0.000000 0.000000
									}
								}
							}
						}
					}
				}
			}
		}
	}
}
MOTION
Frames: 8
Frame Time: 0.016667
-0.060560 15.656480 -1.787710 -2.229313 -17.143894 -3.523839 -15.611579 10.140990 5.218420 17.523988 -8.496797 -40.027865 -15.312844 26.071088 65.841971 1.382591 15.047868 -0.460870 1.356740 0.924710 1.267690 18.520658 -7.840958 4.225280 3.834297 15.110530 -40.855807 -7.167367 -7.473054 75.093927 -2.159198 -11.497480 0.500282 0.696550 0.102850 0.690980 -3.629474 -1.636038 -9.551986 8.454825 0.139230 39.451059 1.273252 1.884592 15.874431 -0.071667 0.693547 -2.142498 1.030604 5.014007 46.660608 -10.724100 9.173000 -8.156000 17.025752 -29.037775 -3.957105 7.502805 -43.993537 4.240892 0.809327 -5.581700 -0.436577 -4.303910 3.131204 0.297320 0.461480 0.070920 0.303390 -16.085831 31.130536 -7.942153 18.355797 50.846916 7.294350 -15.642911 39.806657 -5.914199 1.590304 -1.807121 0.098240 -0.058460 -0.481230 -0.379980 
-0.025850 15.655130 -1.752120 -2.838659 -19.584298 -2.826855 -15.598845 9.720569 5.467447 21.031960 -7.222220 -40.518078 -19.174005 29.108536 64.462180 1.584728 15.402342 -0.544861 1.392500 0.996380 1.300310 18.587175 -7.734814 4.249434 2.720419 15.710071 -41.753311 -5.725645 -8.828040 75.646707 -2.209806 -11.687352 0.449216 0.707080 0.043330 0.681550 -3.877941 -1.141603 -9.670542 10.757442 -0.553789 38.840641 -0.305258 1.865403 16.406713 0.513111 0.110714 -2.247907 0.221190 6.045513 45.079579 -11.416440 9.728750 -8.177060 14.968595 -26.453693 -2.005605 4.781676 -43.414701 4.412590 5.953657 -3.459773 -1.147339 -4.345451 3.186919 0.243390 0.442380 0.096830 0.311430 -15.355875 28.341756 -7.846333 18.676601 49.521607 4.133868 -17.126944 49.755485 -8.152265 1.475182 -1.877313 0.156090 -0.109100 -0.542580 -0.360580 
0.051970 15.672220 -1.679790 -3.736315 -22.760277 -2.145868 -15.518304 9.247178 5.717432 24.785326 -5.793962 -40.246212 -22.865160 32.276329 63.253377 1.788031 15.806009 -0.608076 1.264510 0.846350 1.214320 18.696922 -7.769225 4.224665 -1.898697 15.721690 -43.056014 0.707566 -14.150667 74.600104 -2.233927 -12.167845 0.322890 0.598550 0.067220 0.674730 -4.358588 -0.318768 -9.763510 15.047866 -2.347073 38.330316 -3.121586 1.122497 16.835873 1.064628 -1.476710 -3.476143 -2.219960 7.684621 43.389740 -12.291270 9.900840 -6.565210 13.891308 -23.336229 1.603874 3.226469 -37.199100 4.309373 6.723086 -7.279946 -0.963915 -4.289131 3.195562 0.212360 0.459230 0.044440 0.271070 -15.453418 25.156624 -7.582827 18.190385 46.794297 -0.270773 -16.164181 63.548003 -10.782229 1.378140 -1.933954 0.149450 -0.154870 -0.485650 -0.353520 
0.111630 15.680400 -1.583150 -3.640414 -25.561474 -0.544623 -15.602128 8.922680 6.033249 28.284762 -4.708245 -41.321670 -25.166709 35.261316 63.417849 2.040582 16.135369 -0.626915 1.207930 0.733980 1.219830 18.672373 -7.369805 4.345002 -9.330492 14.854402 -46.351134 9.684708 -21.288708 72.327201 -2.439447 -12.982100 0.130248 0.466700 -0.020340 0.637090 -4.400353 -0.440529 -10.003612 16.167108 -3.731915 36.916893 -5.181232 0.191986 15.706489 2.346716 -3.239154 -5.629046 -5.908891 9.224395 45.055404 -13.685910 10.036900 -6.267420 10.194686 -20.348301 4.860972 -0.507832 -29.726148 3.801405 6.244821 -11.036058 -0.717901 -4.052143 3.199182 0.294530 0.349730 0.101390 0.268350 -14.524552 23.129691 -6.183222 16.951622 43.140656 -2.982381 -7.624458 78.486038 -9.151632 1.430422 -2.092507 0.160950 -0.192180 -0.517720 -0.361470 
0.139580 15.679260 -1.478740 -2.977588 -27.497956 0.649342 -15.740120 8.658591 6.148955 30.839346 -3.772434 -42.159667 -23.172193 37.925455 68.086552 2.404699 16.763694 -0.727069 1.155530 0.676720 1.149050 18.616333 -6.769482 4.647603 -18.048591 12.948025 -49.540861 20.328129 -28.734689 68.053028 -2.686324 -13.823533 -0.063201 0.346090 -0.087270 0.625110 -4.316185 -0.855302 -10.188011 16.693972 -4.277060 35.555723 -6.243283 -0.158983 13.633756 2.961824 -4.033892 -7.277737 -8.568352 10.167061 45.276633 -13.221630 9.897240 -5.558940 7.030768 -17.241706 6.326493 -4.565457 -23.024246 3.000694 3.419042 -17.688294 -0.116506 -3.779689 3.354451 0.319230 0.249540 0.150930 0.282020 -13.112997 19.874726 -4.515575 16.549393 37.194038 -6.785291 106.553923 83.353646 96.636439 2.197115 3.672395 0.228050 -0.269150 -0.537590 -0.312130 
0.152030 15.683000 -1.356350 -2.947748 -29.913237 1.478067 -15.764956 8.675722 5.912136 32.388147 -2.602390 -40.967659 -15.496196 37.372573 75.637072 2.632524 17.353004 -0.796540 1.028940 0.508870 1.017930 18.623016 -6.418775 5.113850 -25.537515 10.842643 -51.031979 31.889630 -34.291705 60.842293 -2.744088 -13.952145 -0.030266 0.213030 -0.018570 0.613530 -4.451448 -1.113887 -10.355547 18.428623 -5.209348 34.294212 -7.747755 -0.474043 13.797181 3.813417 -5.106520 -9.752645 -10.975639 11.357569 42.487025 -12.596100 9.795840 -2.894140 4.141440 -13.299700 6.449636 -10.596544 -15.532264 1.285017 3.699953 -24.903807 -0.257332 -3.678049 3.445241 0.309190 0.252280 0.091250 0.297250 -11.992957 17.561760 0.675743 15.224783 29.290852 -5.349914 177.233035 70.240433 163.322924 1.537044 -2.398649 0.216510 -0.292090 -0.489010 -0.275320 
0.133890 15.683070 -1.253920 -2.481594 -31.352755 1.127446 -15.792864 9.257579 5.201076 32.225051 -2.356843 -38.375724 -4.462051 31.798978 83.196131 2.613923 17.161282 -0.738556 0.914980 0.381720 0.929960 18.574244 -6.321047 5.474315 -31.265228 8.290136 -50.380791 42.940470 -37.176879 52.429523 -2.656808 -13.419227 0.126674 0.117010 0.028010 0.613880 -4.311706 -1.731745 -10.228600 17.852878 -5.902685 34.400132 -7.803267 -1.508232 13.126935 4.363299 -5.668540 -10.862205 -11.538967 12.824702 37.868852 -12.759870 11.467050 -1.970990 2.366672 -8.291417 5.716172 -17.505886 -8.747777 -0.625795 2.927795 -29.481735 -0.377094 -3.669525 3.542583 0.287150 0.270180 0.049600 0.275130 -11.192677 13.132209 3.723960 21.250566 23.944791 -3.369641 -178.307603 60.299013 164.448663 1.611755 -2.545438 0.206520 -0.319770 -0.432430 -0.259310 
0.097200 15.665690 -1.134620 -2.204099 -32.836834 0.728777 -15.713582 10.182939 4.119995 30.661244 -2.216003 -34.238859 6.259856 22.455538 85.768354 2.400715 15.912763 -0.346839 0.747530 0.130170 0.845720 18.564581 -6.588096 5.849682 -35.897127 6.012019 -49.051241 51.895700 -37.770651 44.916870 -2.502913 -12.722727 0.359049 -0.040510 0.120830 0.587890 -4.264603 -2.130454 -9.925694 18.254734 -6.603135 34.639079 -8.795003 -2.320570 11.237738 5.404172 -5.957677 -11.984979 -11.404930 13.529352 33.637856 -13.514380 13.904570 1.162640 0.369448 -1.918633 3.584286 -24.162894 -3.062779 -3.013061 3.536063 -31.990283 -0.623737 -3.690809 3.558959 0.306280 0.294260 -0.020020 0.285420 -11.084816 7.390567 7.822326 37.116704 16.175281 0.198826 -174.571655 51.026395 168.158988 1.792737 -2.694335 0.124960 -0.320480 -0.393180 -0.263930 
